<svg width="570" height="503.5" version="1.1" xmlns="http://www.w3.org/2000/svg">
  <style>.st0{fill:#FFFFFF;}</style>
  <path class="st0" d="m115.36 37.43c56.521 42.433 117.31 128.47 139.64 174.64 22.329-46.168 83.115-132.21 139.64-174.64 40.783-30.618 106.86-54.308 106.86 21.076 0 15.055-8.632 126.47-13.694 144.56-17.598 62.886-81.722 78.926-138.76 69.218 99.705 16.969 124.07 73.178 69.292 129.39-102.03 106.75-146.52-26.784-157.19-60.001-2.137-6.272-3.1378-9.2072-3.152-6.7129-0.0148-2.4943-1.0146 0.43919-3.152 6.7129-10.67 33.217-52.165 162.76-157.19 60.001-54.781-56.208-29.414-112.42 69.292-129.39-56.043 9.708-119.17-6.3317-136.77-69.218-5.0628-17.09-13.694-122.51-13.694-144.56 0-75.384 66.171-51.693 106.86-21.076z"/>
</svg>
